<mxfile host="65bd71144e">
    <diagram id="yAei708GdE8rAGH7NiXZ" name="Page-1">
        <mxGraphModel dx="770" dy="611" grid="1" gridSize="10" guides="1" tooltips="1" connect="1" arrows="1" fold="1" page="1" pageScale="1" pageWidth="850" pageHeight="1100" math="0" shadow="0">
            <root>
                <mxCell id="0"/>
                <mxCell id="1" parent="0"/>
                <mxCell id="2" value="LRID,&lt;br&gt;Consent" style="edgeStyle=none;html=1;exitX=0.5;exitY=1;exitDx=0;exitDy=0;strokeColor=#8F8F8F;entryX=0.5;entryY=0;entryDx=0;entryDy=0;" parent="1" source="3" target="20" edge="1">
                    <mxGeometry relative="1" as="geometry">
                        <mxPoint x="270" y="310" as="targetPoint"/>
                    </mxGeometry>
                </mxCell>
                <mxCell id="3" value="Manager Consent Input" style="whiteSpace=wrap;html=1;fillColor=none;" parent="1" vertex="1">
                    <mxGeometry x="60" y="160" width="120" height="60" as="geometry"/>
                </mxCell>
                <mxCell id="4" value="Leave reason" style="edgeStyle=none;html=1;entryX=0;entryY=0.5;entryDx=0;entryDy=0;strokeColor=#808080;exitX=1;exitY=1;exitDx=0;exitDy=0;" parent="1" source="16" target="6" edge="1">
                    <mxGeometry relative="1" as="geometry">
                        <mxPoint x="490" y="380" as="sourcePoint"/>
                    </mxGeometry>
                </mxCell>
                <mxCell id="5" value="Manager Dashboard" style="whiteSpace=wrap;html=1;fillColor=none;" parent="1" vertex="1">
                    <mxGeometry x="660" y="210" width="110" height="60" as="geometry"/>
                </mxCell>
                <mxCell id="6" value="Leave reason&lt;br&gt;display" style="whiteSpace=wrap;html=1;fillColor=none;" parent="1" vertex="1">
                    <mxGeometry x="660" y="390" width="120" height="60" as="geometry"/>
                </mxCell>
                <mxCell id="7" value="Employee name,&lt;br&gt;Type of Leave,&lt;br&gt;Start &amp;amp; End Date,&lt;br&gt;No. of levaes&amp;nbsp;&lt;br&gt;taken and total&lt;br&gt;available leaves&lt;br&gt;of all Leave requests" style="edgeStyle=none;html=1;entryX=0;entryY=0.5;entryDx=0;entryDy=0;strokeColor=#808080;exitX=1;exitY=0.25;exitDx=0;exitDy=0;" parent="1" source="16" target="5" edge="1">
                    <mxGeometry relative="1" as="geometry">
                        <mxPoint x="490" y="250" as="sourcePoint"/>
                    </mxGeometry>
                </mxCell>
                <mxCell id="8" value="Doc" style="edgeStyle=none;html=1;entryX=1;entryY=0;entryDx=0;entryDy=0;strokeColor=#808080;exitX=0.75;exitY=1;exitDx=0;exitDy=0;" parent="1" source="16" target="11" edge="1">
                    <mxGeometry relative="1" as="geometry">
                        <mxPoint x="470" y="370" as="sourcePoint"/>
                    </mxGeometry>
                </mxCell>
                <mxCell id="10" value="LRID" style="edgeStyle=none;html=1;exitX=0;exitY=0;exitDx=0;exitDy=0;strokeColor=#808080;entryX=0.25;entryY=1;entryDx=0;entryDy=0;" parent="1" source="11" target="16" edge="1">
                    <mxGeometry relative="1" as="geometry">
                        <mxPoint x="380" y="360" as="targetPoint"/>
                    </mxGeometry>
                </mxCell>
                <mxCell id="11" value="Supporting Doc&lt;br&gt;Display" style="whiteSpace=wrap;html=1;fillColor=none;" parent="1" vertex="1">
                    <mxGeometry x="365" y="490" width="120" height="60" as="geometry"/>
                </mxCell>
                <mxCell id="12" value="LRID" style="edgeStyle=none;html=1;strokeColor=#808080;exitX=0;exitY=0;exitDx=0;exitDy=0;entryX=1;entryY=0.75;entryDx=0;entryDy=0;" parent="1" source="6" target="16" edge="1">
                    <mxGeometry relative="1" as="geometry">
                        <mxPoint x="590" y="340" as="sourcePoint"/>
                        <mxPoint x="510" y="280" as="targetPoint"/>
                    </mxGeometry>
                </mxCell>
                <mxCell id="13" value="Employee Leave&lt;br&gt;History" style="whiteSpace=wrap;html=1;fillColor=none;" parent="1" vertex="1">
                    <mxGeometry x="365.43" y="60" width="120" height="60" as="geometry"/>
                </mxCell>
                <mxCell id="14" value="All waiting,&lt;br&gt;approved,&lt;br&gt;declined leaves" style="edgeStyle=none;html=1;entryX=1;entryY=1;entryDx=0;entryDy=0;strokeColor=#808080;exitX=0.75;exitY=0;exitDx=0;exitDy=0;" parent="1" source="16" target="13" edge="1">
                    <mxGeometry relative="1" as="geometry">
                        <mxPoint x="460" y="240" as="sourcePoint"/>
                    </mxGeometry>
                </mxCell>
                <mxCell id="15" value="LRID" style="edgeStyle=none;html=1;strokeColor=#808080;exitX=0;exitY=1;exitDx=0;exitDy=0;entryX=0.25;entryY=0;entryDx=0;entryDy=0;" parent="1" source="13" target="16" edge="1">
                    <mxGeometry relative="1" as="geometry">
                        <mxPoint x="615" y="400" as="sourcePoint"/>
                        <mxPoint x="380" y="250" as="targetPoint"/>
                    </mxGeometry>
                </mxCell>
                <mxCell id="16" value="ELMS Database" style="swimlane;fontStyle=0;childLayout=stackLayout;horizontal=1;startSize=30;horizontalStack=0;resizeParent=1;resizeParentMax=0;resizeLast=0;collapsible=1;marginBottom=0;whiteSpace=wrap;html=1;fillColor=none;" parent="1" vertex="1">
                    <mxGeometry x="355.43" y="260" width="140" height="120" as="geometry"/>
                </mxCell>
                <mxCell id="17" value="employee" style="text;align=left;verticalAlign=middle;spacingLeft=4;spacingRight=4;overflow=hidden;points=[[0,0.5],[1,0.5]];portConstraint=eastwest;rotatable=0;whiteSpace=wrap;html=1;fillStyle=solid;labelBackgroundColor=none;fillColor=default;" parent="16" vertex="1">
                    <mxGeometry y="30" width="140" height="30" as="geometry"/>
                </mxCell>
                <mxCell id="18" value="leave_rules" style="text;align=left;verticalAlign=middle;spacingLeft=4;spacingRight=4;overflow=hidden;points=[[0,0.5],[1,0.5]];portConstraint=eastwest;rotatable=0;whiteSpace=wrap;html=1;fillStyle=solid;labelBackgroundColor=none;fillColor=default;" parent="16" vertex="1">
                    <mxGeometry y="60" width="140" height="30" as="geometry"/>
                </mxCell>
                <mxCell id="19" value="leave_request" style="text;align=left;verticalAlign=middle;spacingLeft=4;spacingRight=4;overflow=hidden;points=[[0,0.5],[1,0.5]];portConstraint=eastwest;rotatable=0;whiteSpace=wrap;html=1;fillStyle=solid;labelBackgroundColor=none;fillColor=default;" parent="16" vertex="1">
                    <mxGeometry y="90" width="140" height="30" as="geometry"/>
                </mxCell>
                <mxCell id="20" value="LRID Validation" style="ellipse;whiteSpace=wrap;html=1;fillColor=none;" parent="1" vertex="1">
                    <mxGeometry x="80" y="280" width="80" height="80" as="geometry"/>
                </mxCell>
                <mxCell id="22" value="LRID,&lt;br&gt;Consent" style="edgeStyle=none;html=1;strokeColor=#8F8F8F;entryX=0;entryY=0.5;entryDx=0;entryDy=0;exitX=1;exitY=0.5;exitDx=0;exitDy=0;" parent="1" source="20" target="16" edge="1">
                    <mxGeometry relative="1" as="geometry">
                        <mxPoint x="220" y="280" as="sourcePoint"/>
                        <mxPoint x="300" y="280" as="targetPoint"/>
                    </mxGeometry>
                </mxCell>
            </root>
        </mxGraphModel>
    </diagram>
</mxfile>